# xmcd CD database file
#
# Track frame offsets:
#	150
#	31523
#	64326
#	109694
#	134904
#	179602
#	229260
#
# Disc length: 3303 seconds
#
# Revision: 0
# Processed by: cddbd v1.5.1PL2 Copyright (c) Steve Scherf et al.
# Submitted via: CDex 1.51
#
DISCID=620ce507
DTITLE=Salsa Swingoza - Swingozando "Live" ad CROCODILE disc2
DYEAR=2006
DGENRE=Salsa
TTITLE0=Los zapatos
TTITLE1=La sandunquita
TTITLE2=Cafe
TTITLE3=Que manera de quererte
TTITLE4=You can't do that
TTITLE5=Azucar
TTITLE6=Sabor a mi
EXTD=YEAR: 2006
EXTT0=
EXTT1=
EXTT2=
EXTT3=
EXTT4=
EXTT5=
EXTT6=
PLAYORDER=
